/* XPM */
static char *result[] = {
/* columns rows colors chars-per-pixel */
"32 32 5 1 ",
"  c black",
". c gray12",
"X c #FFF200",
"o c white",
"O c None",
/* pixels */
"OOOOOOOOOOOOOOOXOOOOOOXOOOOOOOOO",
"XOOOOOOOXOOOOOOXOOOOOXOOOOOOOOXX",
"OXOOOOOOOXOOOOOXOOOOXOOOOOOOXXOO",
"OOXXOOOOOXOOOOOXOOOXOOOOOXXXOOOO",
"OOOOXOOOOOXOOOOXOOOOOOOXXOOOOOOO",
"OOOOOXO.OOXOO.OOOO.OOOOO.OOOOOOO",
"OOOOOO.. OOOO. OO. OOOO.. OXXOOO",
"OOOOOO.  OOOO. OO. OOOO.  OOOXXO",
"XOOOO..   OOO.     OOO..   OOOOX",
"OXOOO.    OO..      OO.    OOOOO",
"OXOO..    ...       ...     OOOO",
"OOXO.                       OOOO",
"OOO..                        OOO",
"OOO.                         OOO",
"OO..                          OO",
"OO.                           OO",
"O..    ..               ...    O",
"O.    OO..              OO...  O",
"o.  OOOOO.....      .. OXOOO.. o",
"O. OOOOOOO.OO.     OO.OOOXOOO..O",
"O.OOOOOOOOOOO..    OOOOOOOXOOO.O",
"OOOOXXXXXOOOOO.   OOOOOOOOOXOOOO",
"XXXXOOOOOOOOOO..  OOOOOOOOOOXOOO",
"OOOOOOOOOOXXOOO. OOOOXOOOOOOOXOO",
"OOOOOOOOXXOOOOOOOOOOOXOOOOOOOOOO",
"OOOOOOXXOOOOOOOOOOOOOXOOOOOOOOOO",
"OOOOXXOOOOOOOOOXOOOOOOXOOOOOOOOO",
"OOOOOOOOOOOOOOOXOOOOOOXOOOOOOOOO",
"OOOOOOOOOOOOOOOXOOOOOOXOOOOOOOOO",
"OOOOOOOOOOOOOOOXOOOOOOXOOOOOOOOO",
"OOOOOOOOOOOOOOOXOOOOOOOXOOOOOOOO",
"OOOOOOOOOOOOOOOXOOOOOOOXOOOOOOOO"
};
