/* XPM */
static char *result[] = {
/* columns rows colors chars-per-pixel */
"32 32 10 1 ",
"  c black",
". c gray50",
"X c #880015",
"o c #C40424",
"O c #B97A57",
"+ c #FFC90E",
"@ c gray63",
"# c #DBA88C",
"$ c #C3C3C3",
"% c None",
/* pixels */
"%%%%%%%%%%%%%%%%%%%%%%%%%%%%%%%%",
"%%%%%%%%%%%%%%%%%%%%%%%%%%%%%%%%",
"%%%%%%%%%%%%%%%%%%%%%%%%%%%%%%%%",
"%%%%%%%%%%%%%%%%%%%%%%%%%%%%%%%%",
"%%%%%%%%%%%%%%%%%%%%%%%%%%%%%%%%",
"%%%%%%%%%%%%XXXXXXX%%%%%%%%%%%%%",
"%%%%%%%%%%%XXXXXXXXo%%%%%%%%%%%%",
"%%%%%%%%%%%XXXooX  oo%%%%%%%%%%%",
"%%%%%%%%%%%XXoooX   o%%%%%%%%%%%",
"%%%%%%%%%%%XXoooX   o%%%%%%%%%%%",
"%%%%%%%%%%%XXXoX     %%%%%%%%%%%",
"%%%%%%%%%%%XXXoX     %%%%%%%%%%%",
"%%%%%%%%%%%%XXX     %%%%%%%%%%%%",
"%%%%%%%%%%%%XX     %%%%%#####%%%",
"%%%%%%%%%%XXX      %%%%%OOOO#%%%",
"%%%%%%%%%XXXXoo+Xooo%%%%%O##%%%%",
"%%%%%%%%%XXoooo+Xoooo%%%    %%%%",
"%%%%%%%%%XXoooo+Xooooo      %%%%",
"%%%%%%%%XXXoooo+Xooo     OOOO%%%",
"%%%%%%%%XXoooooo+X      %.@$%%%%",
"%%%%%%%%XXoooooo+X    o%%.@$%%%%",
"%%%%%%%%XXoooooo+X  ooo%%.@$%%%%",
"%%%%%%%%XXoooooo+Xooooo%%.@$%%%%",
"%%%%%%%%XXoooooo+Xooooo%%%@$%%%%",
"%%%%%%%%XXoooooo+Xooooo%%%@$%%%%",
"%%%%%%%%XXooooooo+Xoooo%%%@$%%%%",
"%%%%%%%%XXooooooo+Xoooo%%%%%%%%%",
"%%%%%%%%XXooooooo+Xoooo%%%%%%%%%",
"%%%%%%%%XXooooXXXXXoooo%%%%%%%%%",
"%%%%%%%%XXoooXX   XoXX  %%%%%%%%",
"%%%%%%%%%XoooX    XoX   %%%%%%%%",
"%%%%%%%%%%%%%     %     %%%%%%%%"
};
