/* XPM */
static char *result[] = {
/* columns rows colors chars-per-pixel */
"32 32 8 1 ",
"  c #4D4C4D",
". c gray50",
"X c #00A2E8",
"o c #5487FF",
"O c gray63",
"+ c #87E6E1",
"@ c #C3C3C3",
"# c None",
/* pixels */
"####........................####",
"####.O                    ..####",
"####.O@++X++o++ @++X++o++ ..####",
"####.O@+X++o+++ @+X++o+++ ..####",
"####.O@X++o+++X @X++o+++X ..####",
"####.O@++o+++X+ @++o+++X+ ..####",
"####.O@+o+++X++ @+o+++X++ ..####",
"####.O@o+++X+++ @o+++X+++ ..####",
"####.O@+++X+++o @+++X+++o ..####",
"####.O@++X+++o+ @++X+++o+ ..####",
"####.O@+X+++o++ @+X+++o++ ..####",
"####.O@X+++o+++ @X+++o+++ ..####",
"####.O@+++o++++ @+++o++++ ..####",
"####.O@++o++++X @++o++++X ..####",
"####.O@+o++++X+ @+o++++X+ ..####",
"####.O@@@@@@@@@ @@@@@@@@@ ..####",
"####.O                    ..####",
"####.O@++X++o++ @++X++o++ ..####",
"####.O@+X++o+++ @+X++o+++ ..####",
"####.O@X++o+++X @X++o+++X ..####",
"####.O@++o+++X+ @++o+++X+ ..####",
"####.O@+o+++X++ @+o+++X++ ..####",
"####.O@o+++X+++ @o+++X+++ ..####",
"####.O@+++X+++o @+++X+++o ..####",
"####.O@++X+++o+ @++X+++o+ ..####",
"####.O@+X+++o++ @+X+++o++ ..####",
"####.O@X+++o+++ @X+++o+++ ..####",
"####.O@+++o++++ @+++o++++ ..####",
"####.O@++o++++X @++o++++X ..####",
"####.O@+o++++X+ @+o++++X+ ..####",
"####.O@@@@@@@@@ @@@@@@@@@ ..####",
"####.OOOOOOOOOO OOOOOOOOO ..####"
};
