/* XPM */
static char *result[] = {
/* columns rows colors chars-per-pixel */
"32 32 14 1 ",
"  c black",
". c gray50",
"X c #880015",
"o c #ED1C24",
"O c #FFC90E",
"+ c #FFF200",
"@ c #00A2E8",
"# c #5487FF",
"$ c gray63",
"% c #87E6E1",
"& c #C3C3C3",
"* c #D6EBEA",
"= c white",
"- c None",
/* pixels */
"----........................----",
"----.$......................----",
"----.$&%%@%%#%%.&%%@%%#%%...----",
"----.$&%@%%#%%%.&%@%%#%%%...----",
"----.$&@%%#%%%@.&@%%#%%%@...----",
"----.$&%%#%%%@%.&%%#%%%@%...----",
"----.$&%#%%%@%%.&%#%%%@%%...----",
"----.$&#%%%@%%%.&#%%%@%%%...----",
"----.$&%%%@%%%#.&%%%@%%%#...----",
"----.$&%%@%%%#%.&%%@%%%#%...----",
"----.$&%@%%%#%%.&%@%%%#%%...----",
"----.$&@%%%#%%%.&@%%%#%%%...----",
"----.$&%%%#%%%%.&%%%#%%%%...----",
"----.$&%%#%%%%@.&%%#%%%%@...----",
"----.$&%#%%%%@%.&%#%%%%@%...----",
"----.$&&&&&&&&&.&&&&&&&&&&..----",
"----.$&******************&..----",
"----.$&**=*=        =*=**&..----",
"----.$&****  XXOOXX  ****&..----",
"----.$&***  XXOO++XX  *=*&..----",
"----.$&**  XXXO+++Xoo  **&..----",
"----.$&=* XXXXO+++Xooo **&..----",
"----.$&** XXXXO+++oooo **&..----",
"----.$&** XXXXO+++oooo *=&..----",
"----.$&*= XXXXXO+ooooo **&..----",
"----.$&** XXXXXOOooooo =*&..----",
"----.$&*=  XXXXXXoooo  **&..----",
"----.$&**=  XXXO+Xoo  =**&..----",
"----.$&****  XXOOXX  ****&..----",
"----.$&*=***        ***=*&..----",
"----.$&&&&&&&&&&&&&&&&&&&&..----",
"----.$$$$$$$$$$.............----"
};
