/* XPM */
static char *result[] = {
/* columns rows colors chars-per-pixel */
"64 64 17 1 ",
"  c #36130B",
". c #4C2D17",
"X c #573E25",
"o c #613D24",
"O c #61372E",
"+ c #765339",
"@ c gray47",
"# c red",
"$ c #FF2B00",
"% c #FF8400",
"& c #C48037",
"* c #FFDEB8",
"= c #FFF9BD",
"- c #99D9EA",
"; c gray83",
": c #C7E2ED",
"> c white",
/* pixels */
"OO   OOO   OOO   OOO   OOO   OOO   OOO   OOO   OOO   OOO   OOO  ",
"O   OOO   OOO   OOO   OOO   OOO   OOO   OOO   OOO   OOO   OOO   ",
"OOOOOOOOOOOOOOOOOOOOOOOOOOOOOOOOOOOOOOOOOOOOOOOOOOOOOOOOOOOOOOOO",
"===========================================================**===",
"============================================================**==",
"=======ooo=========ooo=====***=============ooo=========ooo===**=",
"======ooooo=======ooooo=====***===========ooooo=======ooooo=====",
"=====oo:>>oo=====oo:>>oo=================oo:>>oo=====oo:>>oo====",
"=====o--:::o=====o--:::o=================o--:::o=====o--:::o====",
"=====o----:o=====o----:o=================o----:o=====o----:o====",
"=====o----:o=====o----:o=================o----:o=====o----:o====",
"=====o-----o=====o-----o=================o-----o=====o-----o====",
"=====ooooooo=====ooooooo=================ooooooo=====ooooooo====",
"=====ooooooo=====ooooooo=================ooooooo=====ooooooo====",
"================================================================",
"================================================================",
"================================================================",
"=======ooo=========ooo=====================ooo=========ooo======",
"======ooooo=======ooooo===***=============ooooo=======ooooo=====",
"=====oo:>>oo=====oo:>>oo===***===========oo:>>oo=====oo:>>oo====",
"=====o--:::o=====o--:::o=================o--:::o=====o--:::o====",
"=====o----:o=====o----:o=================o----:o=====o----:o====",
"=====o----:o=====o----:o=================o----:o=====o----:o====",
"=====o-----o=====o-----o=================o-----o=====o-----o====",
"=====ooooooo=====ooooooo=================ooooooo=====ooooooo====",
"=====ooooooo=====ooooooo=================ooooooo=====ooooooo====",
"================================================================",
"================================================================",
"================================================================",
"=======ooo=========ooo=====================ooo=========ooo======",
"======ooooo=======ooooo===================ooooo=======ooooo=====",
"=====oo:>>oo=====oo:>>oo=================oo:>>oo=====oo:>>oo====",
"=====o--:::o=====o--:::o=================o--:::o=====o--:::o====",
"=====o----:o=====o----:o=================o----:o=====o----:o====",
"=====o----:o=====o----:o=================o----:o=====o----:o====",
"=====o-----o=====o-----o=================o-----o=====o-----o====",
"=====ooooooo=====ooooooo=================ooooooo=====ooooooo====",
"=====ooooooo=====ooooooo=================ooooooo=====ooooooo====",
"================================================================",
"================================================================",
"================================================================",
"==========================================***==========***======",
"=========*===============================***==========***=======",
"=========**=====================================================",
"==========*==========****=======================================",
"====================****========================================",
"================================================================",
"================================================================",
"======;;;;;;;;;;;;;;;;;===;;;;;;================================",
"====;;##>>>##>>>#>;;;;;;;;>##>>;================================",
"===;;##>>>##>>>>##>>>##>>>>###>;================================",
"==;;##>>>###>>>##>>>###>>>###>>;====****========================",
"=;#$#>>>###>>>###>>>###>>>###>;;======***=================XXX===",
"===$==>==#==>==#==>==#==>==#==;=========================XXXXX===",
"========================================================XXXXXX==",
"===oooo====ooooooooooooooooooooooooo===================XXXXXXX==",
"==oo-:o+===o----------:::::::::::>:o===================XXXXXXX==",
"==o--:>+===o--------------::::::>::o===================XXXXXXX==",
"==o-->:+===o--------------------:::o===================XXXXXXX==",
"==o.::++===o::::>----------------::o===================XXXXXXX==",
"==.o.o++===o:::>::::--------------:o===================XXXXXXX==",
"==.oo+++===ooooooooooooooooooooooooo===================%%%%%%%==",
"==.oo+++==============================================&&%%%%%===",
"@@.oo+++@@@@@@@@@@@@@@@@@@@@@@@@@@@@@@@@@@@@@@@@@@@@@&&%%%%%@@@@"
};
