/* XPM */
static char *result[] = {
/* columns rows colors chars-per-pixel */
"64 64 12 1 ",
"  c #36130B",
". c #0C3D25",
"X c gray19",
"o c #592B2B",
"O c #61372E",
"+ c #144511",
"@ c gray33",
"# c gray47",
"$ c #AD3636",
"% c #EEF069",
"& c #736FEB",
"* c gray63",
/* pixels */
"OO   OOO   OOO   OOO   OOO   OOO   OOO   OOO   OOO   OOO   OOO  ",
"O   OOO   OOO   OOO   OOO   OOO   OOO   OOO   OOO   OOO   OOO   ",
"OOOOOOOOOOOOOOOOOOOOOOOOOOOOOOOOOOOOOOOOOOOOOOOOOOOOOOOOOOOOOOOO",
"################################################################",
"################################################################",
"################################################################",
"###*****###*****###*****################*****###*****###*****###",
"###*%%%*###*&&&*###*&&&*################*&&&*###*&&&*###*%%%*###",
"###*%%%*###*&&&*###*&&&*################*&&&*###*&&&*###*%%%*###",
"###*%%%*###*&&&*###*&&&*#XXXXXXXXXXXXXX#*&&&*###*&&&*###*%%%*###",
"###*****###*****###*****#X#X#X#XX#X#X#X#*****###*****###*****###",
"#########################X#X#X#XX#X#X#X#########################",
"#########################XXXXXXXXXXXXXX#########################",
"#############################@@@X###############################",
"##############################@@@XX#############################",
"################################@@@X############################",
"#################################@@@XX##########################",
"##################################@@@@X#########################",
"####################################@@@#########################",
"####################################X@@#########################",
"###################################X@@@#########################",
"##################################X@@@##########################",
"###*****###*****###*****#########X@@@###*****###*****###*****###",
"###*&&&*###*&&&*###*%%%*########X@@@####*%%%*###*&&&*###*&&&*###",
"###*&&&*###*&&&*###*%%%*#######X@@@#####*%%%*###*&&&*###*&&&*###",
"###*&&&*###*&&&*###*%%%*#XXXXXXXXXXXXXX#*%%%*###*&&&*###*&&&*###",
"###*****###*****###*****#X#X#X@XX#X#X#X#*****###*****###*****###",
"#########################X#X#X@XX#X#X#X#########################",
"#########################XXXXXXXXXXXXXX#########################",
"#############################@@@X###############################",
"##############################@@@XX#############################",
"################################@@@X############################",
"#################################@@@XX##########################",
"##################################@@@@X#########################",
"####################################@@@#########################",
"####################################X@@#########################",
"###################################X@@@#########################",
"##################################X@@@##########################",
"###*****###*****###*****#########X@@@###*****###*****###*****###",
"###*&&&*###*%%%*###*&&&*########X@@@####*&&&*###*&&&*###*&&&*###",
"###*&&&*###*%%%*###*&&&*#######X@@@#####*&&&*###*&&&*###*&&&*###",
"###*&&&*###*%%%*###*&&&*#XXXXXXXXXXXXXX#*&&&*###*&&&*###*&&&*###",
"###*****###*****###*****#X#X#X@XX#X#X#X#*****###*****###*****###",
"#########################X#X#X@XX#X#X#X#########################",
"#########################XXXXXXXXXXXXXX##################@@@@###",
"#############################@@@X######################@@$o$$@##",
"##############################@@@XX###################@$oo$oo$@#",
"################################@@@X##################@o$$o$$o@#",
"#################################@@@XX################@$oo$oo$o@",
"##################################@@@@X################@$$o$$o@#",
"####################################@@@#################@o$oo$@#",
"####################################X@@##################@@@@o@#",
"###################################X@@@######################@##",
"##################################X@@@##########################",
"@##*****###*****###*****#########X@@@###*****###*****###*****###",
"$@@*&&&*###*&&&*###*&&&*########X@@@####*&&&*###*&&&*###*%%%*###",
"o$$*&&&*###*&&&*###*&&&*#######X@@@#####*&&&*###*&&&*###*%%%*###",
"$oo*&&&*###*&&&*###*&&&*#XXXXXXXXXXXXXX#*&&&*###*&&&*###*%%%*###",
"o$$*****###*****###*****#X#X#X@XX#X#X#X#*****###*****###*****###",
"$oo$o@###################X#X#X@XX#X#X#X#########################",
"o$$o$@###################XXXXXXXXXXXXXX#########################",
"$oo$oo@#######################################+++++#############",
"o$$o$@########################################++..+#############",
"$oo$@#########################################....+#############"
};
