/* XPM */
static char *_eb78c51488840799f4b947aeb2b19adBo4fTxxoVn381ue2[] = {
/* columns rows colors chars-per-pixel */
"64 64 7 1 ",
"  c #36130B",
". c #3D2309",
"X c #592B2B",
"o c #61372E",
"O c #EEF069",
"+ c #6AC3E6",
"@ c #C7E2ED",
/* pixels */
"oo   ooo   ooo   ooo   ooo   ooo   ooo   ooo   ooo   ooo   ooo  ",
"o   ooo   ooo   ooo   ooo   ooo   ooo   ooo   ooo   ooo   ooo   ",
"oooooooooooooooooooooooooooooooooooooooooooooooooooooooooooooooo",
"XXXXXXXXXXXXXXXXXXXXXXXXXXXXXXXXXXXXXXXXXXXXXXXXXXXXXXXXXXXXXXXX",
"XXXXXXXXXXXXXXXXXXXXXXXXXXXXXXXXXXXXXX.XXXXXXXXXXXXXXXXXXXXXXXXX",
"XXXXXXXXX.XXXXXXXXXXXXXXXXXXXXXXXXXXXXX.XXXXXXXXXXXXXXXXXXXXXXXX",
"XXXX   XXX.XXX   XXXXXXX   XXXXXXX   XXXXXXX   XXXXXXXXXXXXXXXXX",
"XXX OOO XXXXX ++@ XXXXX ++@ XXXXX ++@ XXXXX OOO XXXXXXXXX   XXXX",
"XXX OOO XXXXX @@+ XXXXX @@+ XXXXX @@+ XXXXX OOO XXXXXXXX +@@ XXX",
"XXX     XXXXX     XXXXX     XXXXX     XXXXX     XXXXXXXX ++@ XXX",
"XXX OOO XXXXX ++@ XXXXX ++@ XXXXX ++@ XXXXX OOO XXX...XX +++ XXX",
"XXX OOO XXXXX +@+ XXXXX +@+ XXXXX +@+ XXXXX OOO XXX...XXX   XXXX",
"XXX OOO XXXXX @++ XXXXX @++ XXXXX @++ XXXXX OOO XX...XXXXXXXXXXX",
"XXXX   XXXXXXX   XXXXXXX   XXXXXXX   XXXXXXX   XXX...XXXXXXXXXXX",
"XXXXXXXXXXXXXXXXXX..XXXXXXXXXXXXXXXXXXXXXXXXXXXXXXXXXXXXXXXXXXXX",
"XXXXXXXXXXXXXXXXXXX..XXXXXXXXXXXXXXXXXXXXXXXXXXXXXXXXXXXXXXXXXXX",
"XXXXXXXXXXXXXXXXXXXXXXXXXXXXXXXXXXXXXXXXXXXXXXXXXXXXXXXXXXXXXXXX",
"XXXX   XXXXXXX   XXXXXXX   XXXXXXX   XXXXXXX   XXXXXXXXXXXXXXXXX",
"XXX ++@ XXXXX ++@ XXXXX ++@ XXXXX ++@ XXXXX ++@ XXXXXXXXX   XXXX",
"XXX @@+ XXXXX @@+ XXXXX @@+ XXXXX @@+ XXXXX @@+ XXXXXXXX +@@ XXX",
"XXX     XXXXX     XXXXX     XXXXX     XXXXX     XXXXXXXX ++@ XXX",
"XXX ++@ XXXXX ++@ XXXXX ++@ XXXXX ++@ XXXXX ++@ XXXXXXXX +++ XXX",
"XXX +@+ XXXXX +@+ XXXXX +@+ XXXXX +@+ XXXXX +@+ XXXXXXXXX   XXXX",
"XXX @++ XXXXX @++ XXXXX @++ XXXXX @++ XXXXX @++ XXXXXXXXXXXXXXXX",
"XXXX   XXXXXXX   XXXXXXX   XXXXXXX   XXXXXXX   XXXXXXXXXXXXXXXXX",
"XXXXXXXXXX.XXXXXXXX..XXXXXXXXXXXXXXXXXXXXXXXXXXXXXXXXXXXXXXXXXXX",
"XXXXXXXXX..XXXXXXX..XXXXXXXXXXXXXXXXXXXXXXXXXXXXXXXX..XXXXXXXXXX",
"XXXXXXXXX..XXXXXXXXXXXXXXXXXXXXXXXXXXXXXXXXXXXXXXXX..XXXXXXXXXXX",
"XXXX   XX.XXXX   XXXXXXX   XXXXXXX   XXXXXXX   XXXXXXXXXXXXXXXXX",
"XXX OOO XXXXX ++@ XXXXX ++@ XXXXX OOO XXXXX ++@ XXXXXXXXX   XXXX",
"XXX OOO XXXXX @@+ XXXXX @@+ XXXXX OOO XXXXX @@+ XXXXXXXX +@@ XXX",
"XXX     XXXXX     XXXXX     XXXXX     XXXXX     XXXXXXXX ++@ XXX",
"XXX OOO XXXXX ++@ XXXXX ++@ XXXXX OOO XXXXX ++@ XXXXXXXX +++ XXX",
"XXX OOO XXXXX +@+ XXXXX +@+ XXXXX OOO XXXXX +@+ XXXXXXXXX   XXXX",
"XXX OOO XXXXX @++ XXXXX @++ XXXXX OOO XXXXX @++ XXXXXXXXXXXXXXXX",
"XXXX   XXXXXXX   XXXXXXX   XXXXXXX   XXXXXXX   XXXXXXXXXXXXXXXXX",
"XXXXXXXXXXXXXXXXXXXXXXXXXXXXX.XXXXXXXXXXXXXXXXXXXXXXXXXXXXXXXXXX",
"XXXXXXXXXXXXXXXXXXXXXXXXXXXXXX.XXXXXXXXXXXXXXXXXXXXXXXXXXXXXXXXX",
"XXXXXXXXXXXXXXXXXXXXXXXXXXXXXXXXXXXXXXXXXXXXXXXXXXXXXXXXXXXXXXXX",
"XXXX   XXXXXXX   XXXXXXX   XXXXXXX   XXXXXXX   XXXXXXXXXXXXXXXXX",
"XXX ++@ XXXXX OOO XXXXX ++@ XXXXX ++@ XXXXX ++@ XXXXXXXXX   XXXX",
"XXX @@+ XXXXX OOO XXXXX @@+ XXXXX @@+ XXXXX @@+ XXXXXXXX +@@ XXX",
"XXX     XXXXX     XXXXX     XXXXX     XXXXX     XXXXXXXX ++@ XXX",
"XXX ++@ XXXXX OOO XXXXX ++@ XXXXX ++@ XXXXX ++@ XXXXXXXX +++ XXX",
"XXX +@+ XXXXX OOO XXXXX +@+ XXXXX +@+ XXXXX +@+ XXXXXXXXX   XXXX",
"XXX @++ XXXXX OOO XXXXX @++ XXXXX @++ XXXXX @++ XXXXXXXXXXXXXXXX",
"XXXX   XXXXXXX   XXXXXXX   XXXXXXX   XXXXXXX   XXXXXXXXXXXXXXXXX",
"XXXXXXXXXXXXXXXXXXXXXXXXXXXXXXXXXXXXXXXXXXXXXXXXXXXXXXXXXXXXXXXX",
"XXXXXXXXXXXXXXXXXXXXXXXXXXXXXXXXXXXXXXXXXXXXXXXXXXXXXXXXXXXXXXXX",
"XXXXXXXXXXXXXXXXXXXXXXXXXXXXXXXXXXXXXXXXXXXXXXXXXXXXXXXXXXXXXXXX",
"XXXX   XXXXXXX   XXXXXXX   XXXXXXX   XXXXXXX   XXXXXXXXXXXXXXXXX",
"XXX ++@ XXXXX ++@ XXXXX ++@ XXXXX OOO XXXXX ++@ XXXXXXXXX   XXXX",
"XXX @@+ XXXXX @@+ XXXXX @@+ XXXXX OOO XXXXX @@+ XXXXXXXX +@@ XXX",
"XXX     XXXXX     X.XXX     XXXXX     XXXXX     XXXX..XX ++@ XXX",
"XXX ++@ XXXXX ++@ X..XX ++@ XXXXX OOO XXXXX ++@ XXXX.XXX +++ XXX",
"XXX +@+ XXXXX +@+ XX.XX +@+ XXXXX OOO XXXXX +@+ XXXXXXXXX   XXXX",
"XXX @++ XXXXX @++ XXXXX @++ XXXXX OOO XXXXX @++ XXXXXXXXXXXXXXXX",
"XXXX   XXXXXXX   XXXXXXX   XXXXXXX   XXXXXXX   XXXXXXXXXXXXXXXXX",
"XXXXXXXXXXXXXXXXXXXXXXXXXXXXXXXXXXXXXXXXXXXXXXXXXXXXXXXXXXXXXXXX",
"XXXXXXXXXXXXXXXXXXXXXXXXXXXXXXXXXXXXXXXXXXXXXXXXXXXXXXXXXXXXXXXX",
"XXXXX..XXXXXXXXXXXXXXXXXXXXXXXXXXXXXXXXXXXXXXXXXXXXXXXXXXX.XXXXX",
"XXXXXX..XXXXXXXXXXXXXXXXXXXXXXXXXXXXXXXXXXXXXXXXXXXXXXXXX.XXXXXX",
"XXXXXXXXXXXXXXXXXXXXXXXXXXXXXXXXXXXXXXXXXXXXXXXXXXXXXXXXXXXXXXXX",
"XXXXXXXXXXXXXXXXXXXXXXXXXXXXXXXXXXXXXXXXXXXXXXXXXXXXXXXXXXXXXXXX"
};
