/* XPM */
static char *result[] = {
/* columns rows colors chars-per-pixel */
"64 64 7 1 ",
"  c #36130B",
". c #573E25",
"X c #61372E",
"o c #85623D",
"O c #6F8F44",
"+ c #89C93A",
"@ c yellow",
/* pixels */
"XX   XXX   XXX   XXX   XXX   XXX   XXX   XXX   XXX   XXX   XXX  ",
"X   XXX   XXX   XXX   XXX   XXX   XXX   XXX   XXX   XXX   XXX   ",
"XXXXXXXXXXXXXXXXXXXXXXXXXXXXXXXXXXXXXXXXXXXXXXXXXXXXXXXXXXXXXXXX",
"++++++++++++++++++++++++++++++++++++++++++++++++++++++++++++++++",
"++++++++++++++++++++++++++++++++++++++++++++++++++++++++++++++++",
"++++++++++++++++++++++++++++++++++++++++++++++++++++++++++++++++",
"++++++++++++++++++++++++++OOOOOOOOOOOO++++++++++++++++++++++++++",
"+++++++++++++++++++++++++OOOOOOOOOOOOOO+++++++++++++++++++++++++",
"+++++ooo+++++ooo++++++++OOOOOOOOOOOOOOOO+++++ooo+++++ooo++++++++",
"++++oo@oo+++oo@oo+++++++OOOOOOOOOOOOOOOO++++oo@oo+++oo@oo+++++++",
"++++o@@@o+++o@@@o++++++++OOOOOOOOOOOOOO+++++o@@@o+++o@@@o+++++++",
"++++o@@@o+++o@@@o+++++++++OOOOOOOOOOOO++++++o@@@o+++o@@@o+++++++",
"++++o@@@o+++o@@@o+++++++++++++++++++++++++++o@@@o+++o@@@o+++++++",
"++++ooooo+++ooooo+++++++++++++++++++++++++++ooooo+++ooooo+++++++",
"++++++++++++++++++++++++++++++++++++++++++++++++++++++++++++++++",
"++++++++++++++++++++++++++OOOOOOOOOOOO++++++++++++++++++++++++++",
"+++++++++++++++++++++++++OOOOOOOOOOOOOO+++++++++++++++++++++++++",
"+++++ooo+++++ooo++++++++OOoooOOOOOOoooOO+++++ooo+++++ooo++++++++",
"++++oo@oo+++oo@oo+++++++Ooo@ooOOOOoo@ooO++++oo@oo+++oo@oo+++++++",
"++++o@@@o+++o@@@o+++++++Oo@@@oOOOOo@@@oO++++o@@@o+++o@@@o+++++++",
"++++o@@@o+++o@@@o+++++++Oo@@@oOOOOo@@@oO++++o@@@o+++o@@@o+++++++",
"++++o@@@o+++o@@@o+++++++Oo@@@oOOOOo@@@oO++++o@@@o+++o@@@o+++++++",
"++++ooooo+++ooooo+++++++OoooooOOOOoooooO++++ooooo+++ooooo+++++++",
"++++++++++++++++++++++++OOOOOOOOOOOOOOOO++++++++++++++++++++++++",
"++++++++++++++++++++++++OOOOOOOOOOOOOOOO++++++++++++++++++++++++",
"++++++++++++++++++++++++OOOOOOOOOOOOOOOO++++++++++++++++++++++++",
"+++++ooo+++++ooo++++++++OOoooOOOOOOoooOO+++++ooo+++++ooo++++++++",
"++++oo@oo+++oo@oo+++++++Ooo@ooOOOOoo@ooO++++oo@oo+++oo@oo+++++++",
"++++o@@@o+++o@@@o+++++++Oo@@@oOOOOo@@@oO++++o@@@o+++o@@@o+++++++",
"++++o@@@o+++o@@@o+++++++Oo@@@oOOOOo@@@oO++++o@@@o+++o@@@o+++++++",
"++++o@@@o+++o@@@o+++++++Oo@@@oOOOOo@@@oO++++o@@@o+++o@@@o+++++++",
"++++ooooo+++ooooo+++++++OoooooOOOOoooooO++++ooooo+++ooooo+++++++",
"++++++++++++++++++++++++OOOOOOOOOOOOOOOO++++++++++++++++++++++++",
"++++++++++++++++++++++++OOOOOOOOOOOOOOOO++++++++++++++++++++++++",
"++++++++++++++++++++++++OOOOOOOOOOOOOOOO++++++++++++++++++++++++",
"+++++ooo+++++ooo++++++++OOoooOOOOOOoooOO+++++ooo+++++ooo++++++++",
"++++oo@oo+++oo@oo+++++++Ooo@ooOOOOoo@ooO++++oo@oo+++oo@oo+++++++",
"++++o@@@o+++o@@@o+++++++Oo@@@oOOOOo@@@oO++++o@@@o+++o@@@o+++++++",
"++++o@@@o+++o@@@o+++++++Oo@@@oOOOOo@@@oO++++o@@@o+++o@@@o+++++++",
"++++o@@@o+++o@@@o+++++++Oo@@@oOOOOo@@@oO++++o@@@o+++o@@@o+++++++",
"++++ooooo+++ooooo+++++++OoooooOOOOoooooO++++ooooo+++ooooo+++++++",
"++++++++++++++++++++++++OOOOOOOOOOOOOOOO++++++++++++++++++++++++",
"++++++++++++++++++++++++OOOOOOOOOOOOOOOO++++++++++++++++++++++++",
"+++++++++++++++++++++++++++OOOOOOOOOO+++++++++++++++++++++++++++",
"+++++ooo+++++ooo+++++++++++++++++++++++++++++ooo+++++ooo++++++++",
"++++oo@oo+++oo@oo+++++++++++++++++++++++++++oo@oo+++oo@oo+++++++",
"++++o@@@o+++o@@@o+++++++++++++++++++++++++++o@@@o+++o@@@o+++++++",
"++++o@@@o+++o@@@o+++++++++++++++++++++++++++o@@@o+++o@@@o+++++++",
"++++o@@@o+++o@@@o+++++++++++++++++++++++++++o@@@o+++o@@@o+++++++",
"++++ooooo+++ooooo+++++++++++++++++++++++++++ooooo+++ooooo+++++++",
"++++++++++++++++++++++++++++++++++++++++++++++++++++++++++++++++",
"++++++++++++++++++++++++++++++++++++++++++++++++++++++++++++++++",
"++++++++++++++++++++++++++++++++++++++++++++++++++++++++++++++++",
"+++++ooo+++++ooo+++++++++++O+O+OO+O+O++++++++ooo+++++ooo++++++++",
"++++oo@oo+++oo@oo+++++++++O+O+O++O+O+O++++++oo@oo+++oo@oo+++++++",
"++++o@@@o+++o@@@o++++++++OOOOOOOOOOOOOO+++++o@@@o+++o@@@o+++++++",
"++++o@@@o+++o@@@o+++++++O+OOOO....OOOO+O++++o@@@o+++o@@@o+++++++",
"++++o@@@o+++o@@@o++++++++OOOO.@@@@.OOOO+++++o@@@o+++o@@@o+++++++",
"++++ooooo+++ooooo+++++++O+OOO.@@@@.OOO+O++++ooooo+++ooooo+++++++",
"+++++++++++++++++++++++++OOOO.@@@@.OOOO+++++++++++++++++++++++++",
"++++++++++++++++++++++++O+OOO.@..@.OOO+O++++++++++++++++++++++++",
"+++++++++++++++++++++++++OOOO......OOOO+++++++++++++++++++++++++",
"++++++++++++++++++++++++O+OOO......OOO+O++++++++++++++++++++++++",
"+++++++++++++++++++++++++OOOO......OOOO+++++++++++++++++++++++++"
};
