/* XPM */
static char *_f476dbf067c49a0d84d142af0f6bdd9JWn6LP9D2hpbXoJB[] = {
/* columns rows colors chars-per-pixel */
"64 64 18 1 ",
"  c #36130B",
". c #3D2309",
"X c #0C3D25",
"o c gray19",
"O c #592B2B",
"+ c #61372E",
"@ c #144511",
"# c #2A400C",
"$ c #315C2E",
"% c #502C69",
"& c gray33",
"* c gray47",
"= c #408C3B",
"- c #EEF069",
"; c #6D3096",
": c #8330BA",
"> c #6AC3E6",
", c #C7E2ED",
/* pixels */
"++   +++   +++   +++   +++   +++   +++   +++   +++   +++   +++  ",
"+   +++   +++   +++   +++   +++   +++   +++   +++   +++   +++   ",
"++++++++++++++++++++++++++++++++++++++++++++++++++++++++++++++++",
"OOOOOOOOOOOOOOOOOOOOOOOOOOOOOOOOOOOOOOOOOOOOOOOOOOOOOOOOOOOOOOOO",
"OOOOOOOOOOOOOOOOOOOOOOOOOOOOOOOOOOOOOO.OOOOOOOOOOOOOOOOOOOOOOOOO",
"OOOOOOOOOOOOOOOOOOOOOOOOOOOOOOOOOOOOOOO.OOOOOOOOOOOOOOOOOOOOOOOO",
"OOOO   OOOOOOO   OOOOOOO   OOOOOOO   OOOOOOO   OOOOOOOOOOOOOOOOO",
"OOO --- OOOOO >>, OOOOO >>, OOOOO >>, OOOOO --- OOOOOOOOO   OOOO",
"OOO --- OOOOO ,,> OOOOO ,,> OOOOO ,,> OOOOO --- OOOOOOOO >,, OOO",
"OOO     OOOOO     OOOOO     OOOOO     OOOOO     OOOOOOOO >>, OOO",
"OOO --- OO.OO >>, OOOOO >>, OOOOO >>, OOOOO --- OO..OOOO >>> OOO",
"OOO --- O..OO >,> OOOOO >,> OOOOO >,> OOOOO --- O..OOOOOO   OOOO",
"OOO --- O..OO ,>> OOOOO ,>> OOOOO ,>> OOOOO --- OOOOOOOOOOOOOOOO",
"OOOO   OO.OOOO   OOOOOOO   OOOOOOO   OOOOOOO   OOOOOOOOOOOOOOOOO",
"OOOOOOOOOOOOOOOOOOOOOOOOOOOOOOOOOOOOOOOOOOOOOOOOOOOOOOOOOOOOOOOO",
"OOOOOOOOOOOOOOOOOOOOOOOOOOOOOOOOOOOOOOOOOOOOOOOOOOOOOOOOOOOOOOOO",
"OOOOOOOOOOOOOOOOOOOOOOOOOOOOOOOOOOOOOOOOOOOOOOOOOOOOOOOOOOOOOOOO",
"OOOO   OOOOOOO   OOOOOOO   OOOOOOO   OOOOOOO   OOOOOOOOOOOOOOOOO",
"OOO >>, OOOOO >>, OOOOO >>, OOOOO >>, OOOOO >>, OOOOOOOOO   OOOO",
"OOO ,,> OOOOO ,,> OOOOO ,,> OOOOO ,,> OOOOO ,,> OOOOOOOO >,, OOO",
"OOO     OOOOO     OOOOO     OOOOO     OOOOO     OOOOOOOO >>, OOO",
"OOO >>, OOOOO >>, OOOOO >>, OOOOO >>, OOOOO >>, OOOOOOOO >>> OOO",
"OOO >,> OOOOO >,> OOOOO >,> OOOOO >,> OOOOO >,> OOOOOOOOO   OOOO",
"OOO ,>> OOOOO ,>> O..OO ,>> OOOOO ,>> OOOOO ,>> OOOOOOOOOOOOOOOO",
"OOOO   OOOOOOO   OOO..OO   OOOOOOO   OOOOOOO   OOOOOOOOOOOOOOOOO",
"OOOOOOOOOO.OOOOOOOOOOOOOOOOOOOOOOOOOOOOOOOOOOOOOOOOOOOOOOOOOOOOO",
"OOOOOOOOOOO.OOOOOOOOOOOOOOOOOOOOOOOOOOOOOOOOOOOOOOOO.OOOOOOOOOOO",
"OOOOOOOOOOOOOOOOOOOOOOOOOOOOOOOOOOOOOOOOOOOOOOOOOOOOO.OOOOOOOOOO",
"OOOO   OOOOOOO   OOOOOOO   OOOOOOO   OOOOOOO   OOOOOOOOOOOOOOOOO",
"OOO --- OOOOO >>, OOOOO >>, OOOOO --- OOOOO :;; OOOOOOOOO   OOOO",
"OOO --- OOOOO ,,> OOOOO ,,> OOOOO --- OOOOO ::; OOOOOOOO >,, OOO",
"OOO     OOOOO     OOOOO     OOOOO     OOOOO     OOOOOOOO >>, OOO",
"OOO --- OOOOO >>, OOOOO >>, OOOOO --- OOOOO ::; OOOOOOOO >>> OOO",
"OOO --- OOOOO >,> OOOOO >,> OOOOO --- OOOOO :;; OOOOOOOOO   OOOO",
"OOO --- OOOOO ,>> OOOOO ,>> OOOOO --- OOOOO ;;% OOOOOOOOOOOOOOOO",
"OOOO   OOOOOOO   OOOOOOO   OOOOOOO   OOOOOOO   OOOOOOOOOOOOOOOOO",
"OOOOOOOOOOOOOOOOOOOOOOOOOOOOOOOOOOOOOOOOOOOOOOOOOOO...OOOOOOOOOO",
"OOOOOOOOOOOOOOOOOOOOOOOOOOOOOOOOOOOOOOOOOOOOOOOOOOO...OOOOOOOOOO",
"OOOOOOOOOOOOOOOOOOOOOOOOOOOOOOOOOOOOOOOOOOOOOOOOOO...OOOOOOOOOOO",
"OOOO   OOOOOOO   OOOOOOO   OOOOOOO   OOOOOOO   OOO...OOOOOOOOOOO",
"OOO >>, OOOOO --- OOOOO === OOOOO >>, OOOOO >>, OOOOOOOOO   OOOO",
"OOO ,,> OOOOO --- OOOOO === OOOOO ,,> OOOOO ,,> OOOOOOOO >,, OOO",
"OOO     OOOOO     OOOOO     OOOOO     OOOOO     OOOOOOOO >>, OOO",
"OOO >>, OOOOO --- OOOOO === OOOOO >>, OOOOO >>, OOOOOOOO >>> OOO",
"OOO >,> OOOOO --- OOOOO ==$ OOOOO >,> OOOOO >,> OOOOOOOOO   OOOO",
"OOO ,>> OOOOO --- OOOOO =$$ OOOOO ,>> OOOOO ,>> OOOOOOOOOOOOOOOO",
"OOOO   OOOOOOO   OOOOOOO   OOOOOOO   OOOOOOO   OOOOOOOOOOOOOOOOO",
"OOOOOOOOOOOOOOOOOOOOOOOOOOOOOOOOOOOOOOOOOOOOOOOOOOOOOOOOOOOOOOOO",
"OOOOOOOOOOOOOOOOOOOOOOOOOOOOOOOOOOOOOOOOOOOOOOOOOOOOOOOOOOOOOOOO",
"OOOOOOOOOOOOOOOO..OOOOOOOOOOOOOOOOOOOOOOOOOOOOOOOOOOOOOOOOOOOOOO",
"OOOOOOOOOOOOOOO..OOOOOOOOOOOOOOOOOOOOOOOOOOOOOOOOOOOOOOOOOOOOOOO",
"OOOOOOOOOOOOOOOOOOOOOOOOOOOOOOOOOOOOOOOOOOOOOOOOOOOOOOOOOOOOOOOO",
"OOOOOOOOOOOOOOOOOOOOOOOOOOOOOOOOOOOOOOOOOOO.OOOOOOOOOOOOOOOOOOOO",
"OOOOOOOOOOOOOOOOOOOOOOOOOOOOOOOOOOOOOOOOOO.OOOOOOOOOOOOOOOOOOOOO",
"OOOOoooooooooooooooooOOOOOOOOOOOOOOOOOOOOOOOOOOOOOOOOOOOOOOOOOOO",
"OOOoooooooooooooooooooOOOOOOOOOOOOOOOOOOOOOOOOOOOOOOOOOOO   OOOO",
"OOOooooooooo&&&&&&&&&&OOOOOOOOOOOOOOO..OOOOOOOOOOOOOOOOO >>> OOO",
"OOO&*****************&OOOOOOOOOOOOOOOO..OOOOOOOOOOOOOOOO >>> OOO",
"OOO&&&&&&&&&&&&&&&&&&&OOOOOOOOOXX###OOOOOOOOOOOOOOOOOOOO     OOO",
"OOO&*****************&OOOOOOOXXX###@@OOOOOOOOOOOOOOOOOOO   * OOO",
"OOO&&&&&&&&&&&&&&&&&&&OOOOOOOXXX@@@@@@OOOOOOOOOOOOOOOOOO   * OOO",
"OOO&*****************&OOOOOOO$$=======OOOOOOOOOOOOOOOOOO     OOO",
"OOO&&&&&&&&&&&&&&&&&&&OOOOOOO$$=======OOOOOOOOOOOOOOOOO**    *OO",
"OOO&*****************&OOOOOOO$$=======OOOOOOOOOOOOOOOOO********O"
};
