/* XPM */
static char *bf8bb5004999475af3c3f015fe7b8885ZztfSwp70qeThJ5l[] = {
/* columns rows colors chars-per-pixel */
"32 32 10 1 ",
"  c None",
". c black",
"X c #FFC90E",
"o c #FFF200",
"O c #F7AB79",
"+ c #3F48CC",
"@ c #7553F2",
"# c #00A2E8",
"$ c #99D9EA",
"% c white",
/* pixels */
"         ++                     ",
"         +++                    ",
"         ++++                   ",
"         +++++++++              ",
"         ++++++++++             ",
"         +++%%++++++            ",
"         +++%%%%++++            ",
"         +++%%%%+++++           ",
"         ++++++++++++           ",
"          +++OOOOOOO            ",
"           +++OOOOO             ",
"           ++++++O              ",
"         @@@@++++@              ",
"        @@##@$$$$@@             ",
"        @###$$ooooo@            ",
"        ####$o..oo..#           ",
"       #####$oo....o##          ",
"       ####@$$oo..o$##          ",
"      +###@@$$$$$$$$##+         ",
"      ++##@@$$$$$$$$+++         ",
"      +++#@@$$$$$$$$+++         ",
"       +++@@oXXooXXo+++ +++     ",
"       ++++@oXXooXXo++  +++     ",
"    +++++$$$+++++++$$++++++     ",
"    ++++++$$$+++++$$$$+++++     ",
"    +++++++$$$+++$$$$$$++++     ",
"    +++@@@@@@@@@@@@@@@          ",
"    +++@@@@@@@@@@@@@@@          ",
"    +++ @@@  @@@@@ @@@          ",
"        @@    @@@   @           ",
"                                ",
"                                "
};
