/* XPM */
static char *_942d694faa04784e4054060710cc648FGOCsSf1ORJ6lDDc[] = {
/* columns rows colors chars-per-pixel */
"32 32 4 1 ",
"  c None",
". c #2D39C2",
"X c #3F48CC",
"o c #00A2E8",
/* pixels */
"                                ",
"                                ",
"           XX       XX          ",
"           XXX     XXX          ",
"           XXXX   XXXX          ",
"           XXXXXXXXXXX          ",
"           XXXXXXXXXXX          ",
"           XXXXXXXXXXX          ",
"           XXXXXXXXXXX          ",
"           XXXXXXXXXXX          ",
"           XXXXXXXXXXX          ",
"            XXXXXXXXX           ",
"            XXXXXXXXX           ",
"            XXXXXXXXX           ",
"            XXXXXXXXXX          ",
"          XXXXXXXXXXXXX         ",
"        oXXXXXXXXXXXXXXXo       ",
"       ooXXXXXXXXXXXXXXXoo      ",
"       ooXXXXXXXXXXXXXXXoo      ",
"       ooXXXXXXXXXXXXXXXoo      ",
"       ooXXXXXXXXXXXXXXXoo      ",
"       ooXXXXXXXXXXXXXXXoo      ",
"       .oXXXXXXXXXXXXXXXo.      ",
"       ..XXXXXXXXXXXXXXX..      ",
"       ..XXXXXXXXXXXXXXX..      ",
"       ..XXXXXXXXXXXXXXX..      ",
"         XXXXXXXXXXXXXXX        ",
"         XXXXXXXXXXXXXXX        ",
"         XXXXXXXXXXXXXXX        ",
"         XXXXXXXXXXXXXXX        ",
"         XX XXXX XXX XXX        ",
"         X   XX   X   XX        "
};
