/* XPM */
static char *_50b3ea7ade848628f6805cf69dcd9daOZvUxuk93sRqOXL1[] = {
/* columns rows colors chars-per-pixel */
"32 32 12 1 ",
"  c None",
". c black",
"X c #B97A57",
"o c #FFC90E",
"O c #FFF200",
"+ c #F7AB79",
"@ c #3F48CC",
"# c #7553F2",
"$ c #00A2E8",
"% c #5487FF",
"& c #99D9EA",
"* c white",
/* pixels */
"           @@       @@          ",
"           @@@     @@@          ",
"           @@@@   @@@@          ",
"           @@@@@@@@@@@          ",
"           @**@@@@@**@          ",
"           @****@****@          ",
"           @****@****@          ",
"           @@@@@@@@@@@          ",
"           @@+++++++@@          ",
"           @@++XXX++@@          ",
"            @@+XXX+@@           ",
"             @@+++@@            ",
"            $##OOOO##$          ",
"           $$O..OO..O&$         ",
"          $$$OO....OO&$$        ",
"          $$$&OO..OO&&$$        ",
"          $$$&&&&&&&&$$$        ",
"          %$$&&&&&&&&$$%        ",
"         %%%$&&&&&&&&$%%%       ",
"         %%%%&&&&&&&&%%%%       ",
"         #%%%&&&&&&&&%%%        ",
"         #%%%oOoOOoOo%%%        ",
"         ####oOoOOoOo###        ",
"         ####@@@@@@@@###        ",
"         ####&@@@@@@&###        ",
"         ####&&@@@@&&###        ",
"         ####@&&@@&&&###        ",
"         ####@@&##&&@###        ",
"         ####@@&##&@@##         ",
"          ###@@@##@@@##         ",
"          #@@@@@ #@@@@@         ",
"           @@@@@  @@@@@         "
};
