/* XPM */
static char *_0dacf5c7be44b60e72df78a508d7fc6a1ZosAU0YV1Rr2ic[] = {
/* columns rows colors chars-per-pixel */
"32 32 11 1 ",
"  c None",
". c black",
"X c #FFC90E",
"o c #FFF200",
"O c #F7AB79",
"+ c #3F48CC",
"@ c #7553F2",
"# c #00A2E8",
"$ c #C8BFE7",
"% c #99D9EA",
"& c white",
/* pixels */
"                                ",
"          ++                    ",
"          +++                   ",
"          ++++                  ",
"          +++++++++             ",
"          ++++++++++            ",
"          +++&&++++++           ",
"          +++&&&&++++           ",
"          +++&&&&+++++          ",
"          ++++++++++++          ",
"           +++OOOOOOO           ",
"            +++OOOOO            ",
"            ++++++O             ",
"          @@@@++++@             ",
"          @###%%%%%%#           ",
"          ###%%ooooo##          ",
"        #####%o..oo..##         ",
"        #####%oo....o##         ",
"       +###@@%%oo..o%##         ",
"       ++##@@%%%%%%%%#++        ",
"       ++#@@@%%%%%%%%#++        ",
"       +++@@@%%%%%%%%@+++       ",
"          @@@oXXooXXo@+++       ",
"          @@@oXXooXXo@@         ",
"         @@@@%++++++%@@         ",
"         @@@+%%++++%%@@         ",
"         @@@++%%++%%%+@         ",
"         @@@+++%@@%+++@         ",
"         @@@++++@@++++@         ",
"         @++++++@@++++          ",
"         &+++++$  +++++         ",
"          +++++   +++++         "
};
