/* XPM */
static char *_fb74ae71dca4626867977e43f748cd96c2zpbhNQtojcouD[] = {
/* columns rows colors chars-per-pixel */
"32 32 11 1 ",
"  c None",
". c black",
"X c #FFC90E",
"o c #FFF200",
"O c #F7AB79",
"+ c #3F48CC",
"@ c #7553F2",
"# c #00A2E8",
"$ c #C8BFE7",
"% c #99D9EA",
"& c white",
/* pixels */
"                                ",
"                    ++          ",
"                   +++          ",
"                  ++++          ",
"             +++++++++          ",
"            ++++++++++          ",
"           ++++++&&+++          ",
"           ++++&&&&+++          ",
"          +++++&&&&+++          ",
"          ++++++++++++          ",
"           OOOOOOO+++           ",
"            OOOOO+++            ",
"             O++++++            ",
"             @++++@@@@          ",
"           #%%%%%%###@          ",
"          ##ooooo%%###          ",
"         ##..oo..o%#####        ",
"         ##o....oo%#####        ",
"         ##%o..oo%%@@###+       ",
"        ++#%%%%%%%%@@##++       ",
"        ++#%%%%%%%%@@@#++       ",
"       +++@%%%%%%%%@@@+++       ",
"       +++@oXXooXXo@@@          ",
"         @@oXXooXXo@@@          ",
"         @@%++++++%@@@@         ",
"         @@%%++++%%+@@@         ",
"         @+%%%++%%++@@@         ",
"         @+++%@@%+++@@@         ",
"         @++++@@++++@@@         ",
"          ++++@@++++++@         ",
"         +++++  $+++++&         ",
"         +++++   +++++          "
};
