/* XPM */
static char *result[] = {
/* columns rows colors chars-per-pixel */
"64 64 4 1 ",
"  c #573E25",
". c #144511",
"X c #85623D",
"o c None",
/* pixels */
"oooooooooooooooooooooooooooooooooooooooooooooooooooooooooooooooo",
"oooooooooooooooooooooooooooooooooooooooooooooooooooooooooooooooo",
"oooooooooooooooooooooooooooooooooooooooooooooooooooooooooooooooo",
"oooooooooooooooooooooooooooooooooooooooooooooooooooooooooooooooo",
"oooooooooooooooooooooooooooooooooooooooooooooooooooooooooooooooo",
"oooooooooooooooooooooooooooooooooooooooooooooooooooooooooooooooo",
"ooooooooooooooooooooooooooooo.......oooooooooooooooooooooooooooo",
"ooooooooooooooooooooooooooo...........oooooooooooooooooooooooooo",
"ooooooooooooooooooooooooo...............oooooooooooooooooooooooo",
"oooooooooooooooooooooooo.................ooooooooooooooooooooooo",
"oooooooooooooooooooooooo.................ooooooooooooooooooooooo",
"ooooooooooooooooooooooo.....................oooooooooooooooooooo",
"ooooooooooooooooooooo.........................oooooooooooooooooo",
"ooooooooooooooooooo............................ooooooooooooooooo",
"oooooooooooooooooo.............................ooooooooooooooooo",
"ooooooooooooooooo...............................oooooooooooooooo",
"oooooooooooooooo................................oooooooooooooooo",
"oooooooooooooooo................................oooooooooooooooo",
"oooooooooooooooo................................oooooooooooooooo",
"oooooooooooooooo................................oooooooooooooooo",
"oooooooooooooooo...............................ooooooooooooooooo",
"ooooooooooooooooo..............................ooooooooooooooooo",
"oooooooooooooooooo............................oooooo...ooooooooo",
"ooooooooooooooooooo.........o...............oooooo.......ooooooo",
"ooooooooooooooooooooo.....ooo.............oooooooo.......ooooooo",
"ooooooooooooooooooooooooooooo.............ooooooo.........oooooo",
"ooooooooooooooooooooooooooooo ...........oooooooo.........oooooo",
"oooooooooooooooooooooooooooooX .........ooooooooo.........oooooo",
"oooooooooooooooooooooooooooooX   .....oooooooooooo.......ooooooo",
"oooooooooooooooooooooooooooooX    oooooooooooooooo.......ooooooo",
"oooooooooooooooooooooooooooooX    oooooooooooooooooo...ooooooooo",
"oooooooooooooooooooooooooooooX    ooooooooooooooooooX oooooooooo",
"oooooooooooooooooooooooooooooX    ooooooooooooooooooX oooooooooo",
"oooooooooooooooooooooooooooooX    ooooooooooooooooooX oooooooooo",
"oooooooooooooooooooooooooooooX    ooooooooooooooooooX oooooooooo",
"oooooooooooooooooooooooooooooX    XXXXXXXXXXXXXXXXXX  oooooooooo",
"oooooooooooooooooooooooooooooX                        oooooooooo",
"oooooooooooooooooooooooooooooX    oooooooooooooooooooooooooooooo",
"oooooooooooXXXXXXXXXXXXXXXXXX     oooooooooooooooooooooooooooooo",
"oooooooooooX                      oooooooooooooooooooooooooooooo",
"oooooooooooX ooooooooooooooooX    oooooooooooooooooooooooooooooo",
"oooooooooooX ooooooooooooooooX    oooooooooooooooooooooooooooooo",
"oooooooooooX ooooooooooooooooX    oooooooooooooooooooooooooooooo",
"oooooooooooX ooooooooooooooooX    oooooooooooooooooooooooooooooo",
"oooooooooooX ooooooooooooooooX    oooooooooooooooooooooooooooooo",
"oooooooooooX ooooooooooooooooX    oooooooooooooooooooooooooooooo",
"oooooooooooX ooooooooooooooooX    oooooooooooooooooooooooooooooo",
"oooooooooo.....ooooooooooooooX    oooooooooooooooooooooooooooooo",
"ooooooooo.......oooooooooooooX    oooooooooooooooooooooooooooooo",
"oooooooo.........ooooooooooooX    oooooooooooooooooooooooooooooo",
"ooooooo...........oooooooooooX    oooooooooooooooooooooooooooooo",
"ooooooo...........oooooooooooX    oooooooooooooooooooooooooooooo",
"ooooooo...........oooooooooooX    oooooooooooooooooooooooooooooo",
"ooooooo...........oooooooooooX     ooooooooooooooooooooooooooooo",
"ooooooo...........oooooooooooX     ooooooooooooooooooooooooooooo",
"oooooooo.........ooooooooooooX     ooooooooooooooooooooooooooooo",
"ooooooooo.......ooooooooooooX      ooooooooooooooooooooooooooooo",
"oooooooooo.....oooooooooooooX       oooooooooooooooooooooooooooo",
"oooooooooooooooooooooooooooX         ooooooooooooooooooooooooooo",
"oooooooooooooooooooooooooooX         ooooooooooooooooooooooooooo",
"ooooooooooooooooooooooooooX           oooooooooooooooooooooooooo",
"ooooooooooooooooooooooooooX            ooooooooooooooooooooooooo",
"oooooooooooooooooooooooooX             ooooooooooooooooooooooooo",
"oooooooooooooooooooooooooX              oooooooooooooooooooooooo"
};
