/* XPM */
static char *result[] = {
/* columns rows colors chars-per-pixel */
"64 64 4 1 ",
"  c #573E25",
". c #144511",
"X c #85623D",
"o c None",
/* pixels */
"oooooooooooooooooooooooooooooooooooooooooooooooooooooooooooooooo",
"oooooooooooooooooooooooooooooooooooooooooooooooooooooooooooooooo",
"oooooooooooooooooooooooooooooooooooooooooooooooooooooooooooooooo",
"oooooooooooooooooooooooooooooooooooooooooooooooooooooooooooooooo",
"oooooooooooooooooooooooooooooooooooooooooooooooooooooooooooooooo",
"oooooooooooooooooooooooooooooooooooooooooooooooooooooooooooooooo",
"ooooooooooooooooooooooooooooo.......oooooooooooooooooooooooooooo",
"ooooooooooooooooooooooooooo...........oooooooooooooooooooooooooo",
"ooooooooooooooooooooooooo...............oooooooooooooooooooooooo",
"oooooooooooooooooooooooo.................ooooooooooooooooooooooo",
"oooooooooooooooooooooooo.................ooooooooooooooooooooooo",
"ooooooooooooooooooooooo.....................oooooooooooooooooooo",
"ooooooooooooooooooooo.........................oooooooooooooooooo",
"ooooooooooooooooooo............................ooooooooooooooooo",
"oooooooooooooooooo.............................ooooooooooooooooo",
"ooooooooooooooooo...............................oooooooooooooooo",
"oooooooooooooooo................................oooooooooooooooo",
"oooooooooooooooo................................oooooooooooooooo",
"oooooooooooooooo................................oooooooooooooooo",
"oooooooooooooooo................................oooooooooooooooo",
"oooooooooooooooo...............................ooooooooooooooooo",
"ooooooooooooooooo..............................ooooooooooooooooo",
"oooooooooooooooooo............................oooooooooooooooooo",
"ooooooooooooooooooo.........o...............oooooooooooooooooooo",
"ooooooooooooooooooooo.....ooo.............oooooooooooooooooooooo",
"ooooooooooooooooooooooooooooo.............oooooooooooooooooooooo",
"ooooooooooooooooooooooooooooo ...........ooooooooooooooooooooooo",
"oooooooooooooooooooooooooooooX .........oooooooooooooooooooooooo",
"oooooooooooooooooooooooooooooX   .....oooooooooooooooooooooooooo",
"oooooooooooooooooooooooooooooX    oooooooooooooooooooooooooooooo",
"oooooooooooooooooooooooooooooX    oooooooooooooooooooooooooooooo",
"oooooooooooooooooooooooooooooX    oooooooooooooooooooooooooooooo",
"ooooo.....oooooooooooooooooooX    oooooooooooooooooooooooooooooo",
"oooo.......ooooooooooooooooooX    ooooooooooooooooooooo...oooooo",
"ooo.........oooooooooooooooooX    ooooooooooooooooooo.......oooo",
"oo...........ooooooooooooooooX    ooooooooooooooooooo.......oooo",
"oo...........ooooooooooooooooX    oooooooooooooooooo.........ooo",
"oo...........XXXXXXXXXXXXXXXX     XXXXXXXXXXXXXXXXXX.........ooo",
"oo...........                                       .........ooo",
"oo...........ooooooooooooooooX    ooooooooooooooooooo.......oooo",
"ooo.........oooooooooooooooooX    ooooooooooooooooooo.......oooo",
"oooo.......ooooooooooooooooooX    ooooooooooooooooooooo...oooooo",
"ooooo.....oooooooooooooooooooX    oooooooooooooooooooooooooooooo",
"oooooooooooooooooooooooooooooX    oooooooooooooooooooooooooooooo",
"oooooooooooooooooooooooooooooX    oooooooooooooooooooooooooooooo",
"oooooooooooooooooooooooooooooX    oooooooooooooooooooooooooooooo",
"oooooooooooooooooooooooooooooX    oooooooooooooooooooooooooooooo",
"oooooooooooooooooooooooooooooX    oooooooooooooooooooooooooooooo",
"oooooooooooooooooooooooooooooX    oooooooooooooooooooooooooooooo",
"oooooooooooooooooooooooooooooX    oooooooooooooooooooooooooooooo",
"oooooooooooooooooooooooooooooX    oooooooooooooooooooooooooooooo",
"oooooooooooooooooooooooooooooX    oooooooooooooooooooooooooooooo",
"oooooooooooooooooooooooooooooX    oooooooooooooooooooooooooooooo",
"oooooooooooooooooooooooooooooX     ooooooooooooooooooooooooooooo",
"oooooooooooooooooooooooooooooX     ooooooooooooooooooooooooooooo",
"oooooooooooooooooooooooooooooX     ooooooooooooooooooooooooooooo",
"ooooooooooooooooooooooooooooX      ooooooooooooooooooooooooooooo",
"ooooooooooooooooooooooooooooX       oooooooooooooooooooooooooooo",
"oooooooooooooooooooooooooooX         ooooooooooooooooooooooooooo",
"oooooooooooooooooooooooooooX         ooooooooooooooooooooooooooo",
"ooooooooooooooooooooooooooX           oooooooooooooooooooooooooo",
"ooooooooooooooooooooooooooX            ooooooooooooooooooooooooo",
"oooooooooooooooooooooooooX             ooooooooooooooooooooooooo",
"oooooooooooooooooooooooooX              oooooooooooooooooooooooo"
};
