/* XPM */
static char *_7e2d4bb4d714659dd5e96a33d7d1f4a0VTMR0quzaIZMoy0[] = {
/* columns rows colors chars-per-pixel */
"64 64 4 1 ",
"  c None",
". c #573E25",
"X c #144511",
"o c #85623D",
/* pixels */
"                                                                ",
"                                                                ",
"                                                                ",
"                                                                ",
"                                                                ",
"                                                                ",
"                             XXXXXXX                            ",
"                           XXXXXXXXXXX                          ",
"                         XXXXXXXXXXXXXXX                        ",
"                        XXXXXXXXXXXXXXXXX                       ",
"                        XXXXXXXXXXXXXXXXX                       ",
"                       XXXXXXXXXXXXXXXXXXXXX                    ",
"                     XXXXXXXXXXXXXXXXXXXXXXXXX                  ",
"                   XXXXXXXXXXXXXXXXXXXXXXXXXXXX                 ",
"                  XXXXXXXXXXXXXXXXXXXXXXXXXXXXX                 ",
"                 XXXXXXXXXXXXXXXXXXXXXXXXXXXXXXX                ",
"       XXXXX    XXXXXXXXXXXXXXXXXXXXXXXXXXXXXXXX                ",
"      XXXXXXX   XXXXXXXXXXXXXXXXXXXXXXXXXXXXXXXX                ",
"     XXXXXXXXX  XXXXXXXXXXXXXXXXXXXXXXXXXXXXXXXX                ",
"    XXXXXXXXXXX XXXXXXXXXXXXXXXXXXXXXXXXXXXXXXXX                ",
"    XXXXXXXXXXX XXXXXXXXXXXXXXXXXXXXXXXXXXXXXXX                 ",
"    XXXXXXXXXXX  XXXXXXXXXXXXXXXXXXXXXXXXXXXXXX                 ",
"    XXXXXXXXXXX   XXXXXXXXXXXXXXXXXXXXXXXXXXXX                  ",
"    XXXXXXXXXXX    XXXXXXXXX XXXXXXXXXXXXXXX                    ",
"     XXXXXXXXX       XXXXX   XXXXXXXXXXXXX                      ",
"      XXXXXXX                XXXXXXXXXXXXX                      ",
"       XXXXX                 .XXXXXXXXXXX                       ",
"         o.                  o.XXXXXXXXX                        ",
"         o.                  o...XXXXX                          ",
"         o.                  o....                              ",
"         o.                  o....                              ",
"         o.                  o....                              ",
"         o.                  o....                              ",
"         o.............oooooo.....                              ",
"         ooo......................                              ",
"                             .....                              ",
"                             .....                              ",
"                             .....                              ",
"                             .....                              ",
"                             o....                              ",
"                             o............ooooooooooooooooo     ",
"                             o.............................     ",
"                             o....                       o.     ",
"                             o....                       o.     ",
"                             o....                       o.     ",
"                             o....                       o.     ",
"                             o....                      XXX     ",
"                             o....                    XXXXXXX   ",
"                             o....                    XXXXXXX   ",
"                             o....                   XXXXXXXXX  ",
"                             o....                   XXXXXXXXX  ",
"                             o....                   XXXXXXXXX  ",
"                             o....                    XXXXXXX   ",
"                             o....                    XXXXXXX   ",
"                             o.....                     XXX     ",
"                             o.....                             ",
"                            o......                             ",
"                            o.......                            ",
"                           o.........                           ",
"                           o.........                           ",
"                          o...........                          ",
"                          o............                         ",
"                         o.............                         ",
"                         o..............                        "
};
