/* XPM */
static char *_68e7e96111e421fb59e940d457934a4KfP2ExNcU3OE5Vxv[] = {
/* columns rows colors chars-per-pixel */
"32 32 13 1 ",
"  c None",
". c black",
"X c #FFC90E",
"o c #FFF200",
"O c #F7AB79",
"+ c #1F2CDE",
"@ c #2A37C7",
"# c #2D39C2",
"$ c #2634D1",
"% c #3F48CC",
"& c #414EE0",
"* c #00A2E8",
"= c white",
/* pixels */
"           &                    ",
"           @&                   ",
"           +@&                  ",
"           +@&&&&&              ",
"           +@@@@@@&             ",
"           ++++==@@&            ",
"           ++++===+@&           ",
"           ++++===+@&           ",
"           +++++++OO@           ",
"            +++++OOOO           ",
"            +++++OOO            ",
"             ++++++             ",
"              ++++              ",
"             ++++o              ",
"             +++o.              ",
"            ++++o.              ",
"            ++++*o              ",
"            +++%**              ",
"           ++++%*               ",
"           ++++%X               ",
"           +++%%%               ",
"           +++*%%%              ",
"           +++**%%              ",
"          ++++***               ",
"          ++++**#               ",
"          ++++*##               ",
"          ++++*$#               ",
"         ++++++$#               ",
"         + ++++$#               ",
"        ++ ++ ++$#              ",
"           +  @$$#              ",
"                                "
};
